# xmcd CD database file
#
# Track frame offsets:
#	182
#	15640
#	27285
#	44580
#	56420
#	75455
#	87200
#	98030
#	109502
#	120877
#	122345
#	132795
#
# Disc length: 1918 seconds
#
# Revision: 0
# Processed by: cddbd v1.4PL0 Copyright (c) Steve Scherf et al.
# Submitted via: CDex 1.40Release
#
DISCID=82077c0c
DTITLE=Washboard Hank - Donkeys and Tire Fires
DYEAR=1997
DGENRE=Country
TTITLE0=Polyester Polly Lit a Tire Fire in My Heart
TTITLE1=Stompin Tom for Prime Minister
TTITLE2=The Hundred Acre Field
TTITLE3=Too Late to Be Sober
TTITLE4=Trucker Turn to Jesus
TTITLE5=Beautiful Belle of Bailieboro
TTITLE6=Honkey Tonk Donkey
TTITLE7=The Midnight Ride of Red Dog Ray
TTITLE8=Seein Double C and W
TTITLE9=Turkey in the Straw
TTITLE10=Are You Scrubbed?
TTITLE11=Do the Prince Charles
EXTD=YEAR: 1997 ID3G: 2
EXTT0=
EXTT1=
EXTT2=
EXTT3=
EXTT4=
EXTT5=
EXTT6=
EXTT7=
EXTT8=
EXTT9=
EXTT10=
EXTT11=
PLAYORDER=
